<?xml version="1.0" encoding="UTF-8"?>
<svg id="_Слой_2" data-name="Слой 2" xmlns="http://www.w3.org/2000/svg" viewBox="0 0 184.11 140.13">
  <defs>
    <style>
      .cls-1 {
        fill: #201600;
      }
    </style>
  </defs>
  <g id="_Слой_7" data-name="Слой 7">
    <path class="cls-1" d="M179.49,63.07c-5.95-23.75-16.31-41.14-23.6-51.47-12.53-3.87-25.07-7.73-37.6-11.6l-4.8,10c-5.88-1.05-13.04-1.88-21.2-1.87-7.99.01-15.01.83-20.8,1.87-1.91-3.33-3.82-6.67-5.73-10L28.43,11.73c-7.15,9.96-17.27,26.59-23.33,49.33C-1.18,84.61-.44,104.72.96,117.07c5.8,4.69,13.69,10.16,23.73,14.93,8.54,4.05,16.43,6.55,22.93,8.13l9.8-15.67-15.27-7.67,3.4-3.07c8.96,3.98,25.29,9.86,46.47,9.87,21.21,0,37.57-5.88,46.53-9.87l3.73,2.8-15.07,7.6,9.2,16,46.8-23.07c1.32-12.29,1.9-31.51-3.73-54ZM61.56,95.47c-9.17,0-16.6-8.1-16.6-18.1s7.43-18.1,16.6-18.1,16.6,8.1,16.6,18.1-7.43,18.1-16.6,18.1ZM122.76,95.47c-8.95,0-16.2-8.11-16.2-18.1s7.25-18.1,16.2-18.1,16.2,8.1,16.2,18.1-7.26,18.1-16.2,18.1Z"/>
  </g>
</svg>