<?xml version="1.0" encoding="UTF-8"?>
<svg id="_Слой_2" data-name="Слой 2" xmlns="http://www.w3.org/2000/svg" viewBox="0 0 190.8 118.64">
  <defs>
    <style>
      .cls-1 {
        fill: #201600;
      }
    </style>
  </defs>
  <g id="_Слой_2-2" data-name="Слой 2">
    <path class="cls-1" d="M33.6,0c-.12,6.62.25,16.03,2.6,27,1.67,7.78,3.81,17.78,10,28,8.88,14.66,21.83,22.77,30.6,27V0h31.4v46.8c5.63-1.45,16.44-5.06,26.6-14.4,13.28-12.22,17.34-26.77,18.6-32.4h30.2c-1.2,7.25-4.39,20.62-14,34.4-9.6,13.76-21.02,21.37-27.4,25,6.96,3.29,17.13,9.19,26.8,19.4,14.19,15,19.63,31.22,21.8,39.6h-33.4c-1.84-5.5-6.93-18.3-19.8-29-11.82-9.82-24.08-12.79-29.8-13.8v42.8c-9.82.66-37.25,1.17-62.6-16.8-18.72-13.27-27.59-30.43-31.6-38.4C5.25,46.58,2.84,31.18,1.62,23,.24,13.72-.04,5.8,0,0h33.6Z"/>
  </g>
</svg>