<?xml version="1.0" encoding="UTF-8"?>
<svg id="_Слой_2" data-name="Слой 2" xmlns="http://www.w3.org/2000/svg" viewBox="0 0 358.62 274.87">
  <defs>
    <style>
      .cls-1 {
        fill: none;
        stroke: #201600;
        stroke-miterlimit: 10;
        stroke-width: 30px;
      }

      .cls-2 {
        fill: #201600;
      }
    </style>
  </defs>
  <g id="_Слой_8" data-name="Слой 8">
    <path class="cls-2" d="M8.16,194.6l80,33.07,50.93,20.27c17.19,1.68,32.77-9.41,36.53-25.07,3.29-13.68-3.01-28.51-15.73-36.27L.16,120.2c-.45,13.28,0,28.77,2.4,45.87,1.45,10.38,3.41,19.92,5.6,28.53Z"/>
    <path class="cls-2" d="M144.02,156.73c-32.62,0-59.07,26.45-59.07,59.07s26.45,59.07,59.07,59.07,59.07-26.45,59.07-59.07-26.45-59.07-59.07-59.07ZM144.69,264.2c-26.22,0-47.47-21.25-47.47-47.47s21.25-47.47,47.47-47.47,47.47,21.25,47.47,47.47-21.25,47.47-47.47,47.47Z"/>
    <circle class="cls-1" cx="278.56" cy="80.07" r="65.07"/>
    <circle class="cls-2" cx="279.49" cy="81" r="41.2"/>
    <polygon class="cls-2" points="203.09 213.93 279.49 159.53 197.76 82.47 147.41 156.83 203.09 213.93"/>
  </g>
</svg>