<svg width="34" height="276" viewBox="0 0 34 276" fill="none" xmlns="http://www.w3.org/2000/svg">
<path d="M32.6753 271.4C29.4805 274.258 25.1948 273.569 24.5844 273.452C23.0909 272.998 19.9221 271.803 17.1429 268.802C13.7792 265.178 13.026 261.112 12.8182 259.605L11.7792 147.02C11.7792 146.033 11.7013 142.486 9.05195 139.356C5.63636 135.316 0.727273 135.238 0 135.238C0.87013 135.238 5.45455 135.095 9.11688 131.367C12.6623 127.743 12.8052 123.339 12.8182 122.43V12.9624C13.4156 6.40244 17.7403 1.64807 23.1299 1.50518C28.987 1.3493 31.2468 4.79167 31.4545 5.10343" stroke="#1D1D1B" stroke-width="3" stroke-miterlimit="10"/>
</svg>
