<svg width="53" height="41" viewBox="0 0 53 41" fill="none" xmlns="http://www.w3.org/2000/svg">
<path d="M51.6744 18.1575C49.9615 11.32 46.9789 6.31351 44.8801 3.33957C41.2728 2.22542 37.6626 1.11415 34.0553 0L32.6734 2.87894C30.9806 2.57665 28.9193 2.3377 26.5701 2.34058C24.2698 2.34346 22.2488 2.57953 20.5819 2.87894C20.032 1.92025 19.4821 0.958687 18.9323 0L8.18517 3.377C6.12673 6.24442 3.21324 11.0321 1.4686 17.5788C-0.33937 24.3587 -0.126328 30.1483 0.276724 33.7037C1.94651 35.054 4.21799 36.6287 7.10845 38.002C9.56706 39.168 11.8385 39.8877 13.7099 40.3426L16.5312 35.8313L12.1351 33.6231L13.1139 32.7393C15.6934 33.8851 20.3948 35.5779 26.4923 35.5808C32.5986 35.5808 37.3085 33.888 39.8881 32.7393L40.9619 33.5454L36.6233 35.7334L39.272 40.3397L52.7454 33.698C53.1254 30.1598 53.2924 24.6264 51.6716 18.1517L51.6744 18.1575ZM17.7231 27.4852C15.0831 27.4852 12.9441 25.1533 12.9441 22.2744C12.9441 19.3954 15.0831 17.0635 17.7231 17.0635C20.3631 17.0635 22.5021 19.3954 22.5021 22.2744C22.5021 25.1533 20.3631 27.4852 17.7231 27.4852ZM35.3422 27.4852C32.7656 27.4852 30.6783 25.1504 30.6783 22.2744C30.6783 19.3983 32.7656 17.0635 35.3422 17.0635C37.9189 17.0635 40.0061 19.3954 40.0061 22.2744C40.0061 25.1533 37.916 27.4852 35.3422 27.4852Z" fill="#47B2FF"/>
</svg>
