<?xml version="1.0" encoding="UTF-8"?>
<svg id="_Слой_2" data-name="Слой 2" xmlns="http://www.w3.org/2000/svg" viewBox="0 0 260.8 256">
  <defs>
    <style>
      .cls-1 {
        fill: #fff;
      }
    </style>
  </defs>
  <g id="_Слой_1-2" data-name="Слой 1">
    <path class="cls-1" d="M95.76,254.67c1.18-1.44,1.5-2.93,1.6-3.6.07-8.07.13-16.13.2-24.2-2.4.96-18.34,7.07-31.6-1.4-3.36-2.15-5.82-4.77-7.6-7.2-7.6-10.27-15.2-20.53-22.8-30.8-.08-1.98.87-3.83,2.49-4.79,2.01-1.19,4.73-.82,6.51.99,3.35,2.04,6.93,4.48,10.6,7.4,7.41,5.9,13.03,12.05,17.2,17.4,1.19,1.47,3.74,4.14,7.8,5.4,9.1,2.82,16.94-4.18,17.4-4.6-.04-2.32.2-7.21,3.2-12.2,1.59-2.64,3.45-4.49,4.9-5.69-5.5-.2-20.5-1.48-35.1-12.31-14.99-11.13-20.49-25.61-22.2-30.8-1.93-7.46-5.93-27.32,4.4-46.2,2.3-4.2,4.95-7.71,7.6-10.6-.65-5.25-1.31-11.09-2-18-.36-3.56-.69-7.32,1-11.6.81-2.04,1.83-3.58,2.6-4.6,3.18-.27,6.99-.28,11.2.4,12.27,1.97,20.73,8.51,24.8,12.2,8.43-1.9,19.3-3.57,32-3.6,12.97-.03,24.06,1.67,32.6,3.6,3.42-3.23,9.65-8.26,18.8-11.4,6.62-2.28,12.5-2.78,16.6-2.8,1.72,2.61,3.89,6.67,5,12,2.1,10.08-.96,18.31-2.4,21.6,3.81,5.07,10.45,15.35,12.8,30,3.09,19.22-3.09,34.28-5.8,40-2.41,4.64-9.86,17.46-25.6,25-10.78,5.17-20.69,5.58-26,5.4.91,2.22,1.97,4.56,3.2,7,1.45,2.86,2.94,5.46,4.4,7.8-.01,3.65-.01,7.32,0,11,.05,12.91.25,25.65.6,38.2.08.42.3,1.26,1,2,.12.13.25.23.39.34,54.94-15.34,95.25-65.76,95.25-125.6C260.8,58.38,202.42,0,130.4,0S0,58.38,0,130.4c0,59.6,39.98,109.85,94.58,125.42.39-.31.8-.68,1.18-1.15Z"/>
  </g>
</svg>