<?xml version="1.0" encoding="UTF-8"?>
<svg id="_Слой_2" data-name="Слой 2" xmlns="http://www.w3.org/2000/svg" viewBox="0 0 221.74 177.32">
  <defs>
    <style>
      .cls-1 {
        fill: #201600;
      }
    </style>
  </defs>
  <g id="_Слой_9" data-name="Слой 9">
    <path class="cls-1" d="M66.22,145.63c.43,1.36.97,2.72,1.61,4.04-1.64-3.19-2.56-6.61-3.03-9.92-.47-3.32-.53-6.56-.41-9.67.2-6.23,1.06-12.45,2.38-18.46-1.8,6.47-3.03,13.47-3.4,20.77-.15,3.7-.02,7.65.94,11.76.48,2.05,1.16,4.12,2.14,6.13.48,1.01,1.07,1.97,1.66,2.93.3.47.64.92.97,1.37.32.46.67.89,1.04,1.3,2.86,3.4,6.41,5.87,10.04,7.59,3.66,1.67,7.42,2.64,11.08,2.93,1.83.18,3.64.13,5.39.01,1.72-.16,3.37-.41,4.93-.79,3.14-.74,5.93-1.85,8.36-3.15.71.32,2.93.1,5.75-.69,2.82-.78,6.21-2.14,9.36-3.71,6.27-3.13,11.75-7.06,11.8-7.44,4.15-3.57,8.18-7.31,12-11.28-2.68,2.68-5.4,5.33-8.24,7.82,2.84-2.5,5.56-5.14,8.24-7.82,12.14-12.5,22.91-26.74,33.16-41.73,10.27-15,20.12-30.92,29.05-47.78,1.99-3.85,4.74-9.13,7.18-15.93.29-.86.58-1.73.88-2.62.13-.45.27-.91.41-1.37.2-.7.45-1.51.61-2.28.17-.78.34-1.57.51-2.36.16-.79.39-1.6.46-2.38.1-.79.21-1.58.32-2.38l.15-1.2.06-1.15c.04-.77.08-1.55.12-2.32.05-.79-.03-1.48-.04-2.23-.03-.73-.06-1.47-.09-2.21-.05-.72-.11-1.44-.16-2.17-.12-1.48-.24-2.97-.36-4.47-.14-1.52-.26-3.25-.45-4.78-4.24,1.97-7.97,3.67-11.97,5.67-2,1.06-4.08,2.27-6.15,3.75-1.04.75-2.08,1.46-3.1,2.32-1.03.83-2.05,1.63-3.05,2.53l-1.23,1.11-.84.79c-.56.53-1.12,1.06-1.65,1.59-1.08,1.07-2.12,2.15-3.13,3.23-2.01,2.17-3.89,4.34-5.63,6.47-7.02,8.51-12.53,16.62-16.05,22.18l-1.29,2.04-1.23,2.07c-.81,1.39-1.67,2.76-2.44,4.19,1.35-2.33,2.09-3.46,2.78-4.62.69-1.16,1.42-2.29,2.9-4.54-3.28,5.92-6.09,11.72-8.54,17.43-2.48,5.7-4.64,11.3-6.52,16.89,1.02-1.83,1.38-2.08,3.66-6.44-.81,1.82-1.68,3.62-2.42,5.47-.58,2.7-1.92,6.99-3.15,11.37-1.24,4.38-2.38,8.84-2.91,11.73-.07-.67-.41.11-.85,1.56-.45,1.45-1,3.56-1.43,5.57l.63-1.52c-.86,3.78-1.69,7.76-2.25,11.87-.56,4.11-.91,8.32-.97,12.52-.18,8.39,1.05,16.75,3.49,23.74.15.49.32.94.48,1.37.16.47.32.91.46,1.32.35,1.04.64,1.88.89,2.51l2.47,4.28,2.78,3.68c.98.95,1.98,1.78,2.96,2.67.98.82,1.99,1.32,3.14,1.7-.25.06.3.44,1.34.68,1.02.26,2.65.08,3.79-.47,1.15-.54,1.81-1.21,2.01-1.32.09-.06.08.02-.13.27-.21.25-.59.69-1.4,1.22,1.27-.85,2.11-1.95,2.82-3.15.36-.57.63-1.31.91-2.02l.43-1.06c.07-.18.15-.34.21-.54l.15-.64.59-2.54.35-2.76c.14-.9.16-1.87.23-2.82.06-.95.13-1.89.1-2.81v-1.38s0-.69,0-.69c0-.22,0-.49-.01-.62l-.12-1.94c-.11-1.29-.23-2.57-.42-3.82-.35-2.52-.9-4.96-1.58-7.31-.83-3.87-1.92-7.69-3.19-11.43-1.29-3.74-2.75-7.41-4.34-11.06-3.19-7.29-7.11-14.32-11.56-21.03-4.46-6.7-9.48-13.06-15.06-18.89-1.4-1.45-2.78-2.91-4.26-4.29l-2.18-2.09-2.25-2.01c-1.83-1.59-3.86-3.15-6.05-4.77-.2-.09.02-.13.1-.19l.32-.17.64-.34,1.3-.68c.9-.47,1.8-.94,2.7-1.41l-.73.09c4.95-2.66,9.61-5.17,14.54-7.82,2.64-1.4,5.36-2.82,8.27-4.25,1.46-.7,2.96-1.42,4.51-2.17,1.59-.78,3.17-1.69,4.72-2.82,2.01-1.84,4.31-4.48,4.43-7.58.03-1.53-.59-3.06-1.6-4.16-1.02-1.12-2.34-1.84-3.57-2.43-5.02-2.31-9.51-3.91-11.65-4.17-5.84-2.52-9.97-3.85-14.22-5.1l-6.1-1.8,6.21-2.17c3.67-1.28,7.43-2.6,12.68-4.28-3.1.23,10.8-3.92,5.08-2.79-7.77,1.32-7.97,2.17-14.55,3.32l.25.15-4.19,1.07-14.09,3.61,13.83,5.36c6.71,2.6,13.26,5.58,19.6,8.96l2.37,1.28,1.18.66.57.32.21.14c.48.32.93.69,1.13,1.21.21.52.11,1.11-.18,1.56-.14.23-.31.43-.5.61-.21.21-.27.23-.92.75-1.06.82-2.38,1.57-3.69,2.18l-5,2.25c-3.39,1.53-6.78,3.06-10.18,4.59-3.42,1.55-6.84,3.1-10.26,4.65-6.13,2.83-12.27,5.66-18.41,8.49l-.92.45c-.3.15-.65.3-.86.46,3.81,2.99,7.58,5.96,11.33,9.04.93.76,1.87,1.53,2.81,2.29.9.76,1.81,1.57,2.65,2.36.92.86,1.89,1.69,2.78,2.6,3.69,3.52,7.12,7.38,10.39,11.4,6.55,8.04,12.08,16.99,16.66,26.13,4.93,10.05,9.25,21.18,10.75,31.9.2,1.34.33,2.68.43,4,.04.57.07,1.13.11,1.7l.04.79c.04.9,0,1.84-.12,2.82-.05.49-.14.99-.38,1.44-.22.45-.71.75-1.16.67-.91-.17-1.39-.98-1.99-1.61-.26-.32-.48-.69-.68-1.06-.17-.38-.29-.77-.39-1.13-.05-.18-.08-.37-.1-.54l-.03-.25-.17-.59c-.27-.81-.41-1.69-.64-2.57-2.67-7.77-3.19-17.75-1.95-27.96.15-1.28.3-2.56.51-3.85.18-1.29.4-2.58.64-3.86.21-1.29.51-2.59.77-3.89.28-1.29.5-2.6.82-3.88,1.16-5.15,2.53-10.22,3.99-15.09-.12.36-.24.71-.31.94.75-2.6,1.66-4.96,2.48-7.26.92-2.26,1.76-4.46,2.73-6.6.96-2.14,1.89-4.28,2.94-6.44,1-2.19,2.1-4.41,3.23-6.78-.18-.03.51-1.51.81-2.25.41-.31,2.24-3.97,5.12-9.2,2.91-5.2,6.94-11.92,11.49-18.37,2.28-3.22,4.64-6.43,6.98-9.32,1.17-1.45,2.34-2.8,3.48-4.08.58-.63,1.14-1.24,1.7-1.82.28-.29.56-.57.83-.85.26-.26.51-.51.76-.76,2.1-2.18,4.24-3.59,4.55-3.61.49-.35,1.03-.7,1.58-1.01l.88-.37c.1-.08.08.06.09.15v.28s.03.56.03.56c.02.37,0,.74-.01,1.1-.02.73-.09,1.45-.2,2.14-.2,1.39-.53,2.7-.94,3.86-.05.15-.1.29-.15.43l-.08.22-.15.45c-.19.61-.42,1.23-.64,1.83-.43,1.22-.94,2.43-1.44,3.63-1.02,2.4-2.18,4.76-3.38,7.1-2.41,4.66-5.05,9.29-7.54,13.72-2.53,4.43-4.97,8.71-7.3,12.79-1.76,3.84-3.91,8.08-5.4,11.33-2.13,2.72-1.88,3.65-4.21,7.08-7.15,7.87-10.15,13.22-6.56,9.13-4.69,7.26-9.98,14.1-14.74,20.03-2.16,2.79-4.33,5.55-6.62,8.26-1.92,2.33-3.29,3.36-4.63,4.15-2.6,2.82-3.64,3.7-4.7,4.6-.55.43-1.1.88-1.91,1.52-.4.33-.86.71-1.41,1.17-.56.45-1.21.98-1.99,1.6-.91.43-4.59,3.79-8.5,6.95-3.93,3.14-8.13,6.03-9.14,6.48l1.07-.72c-3.97,2.25-7.5,3.59-10.97,4.53-3.48.91-6.9,1.5-10.82,1.72-1.38.05-2.67,0-4.01-.14-1.32-.18-2.64-.39-3.93-.76-2.56-.72-5.02-1.82-7.05-3.33-.53-.35-.98-.78-1.47-1.17-.43-.44-.91-.84-1.28-1.31-.83-.9-1.47-1.89-2.04-2.94-1.13-2.13-1.8-4.72-2.13-7.54-.34-2.81-.32-5.89-.17-8.99.12-3.08.45-6.14.88-9.16.88-6.03,2.33-11.86,4.09-17.37-.52-.4-1.33,4.92-2.13,4.97.42-1.65.98-3.28,1.47-4.91.55-1.63,1.12-3.25,1.72-4.87l.94-2.42.47-1.21.8-1.93,1.62-3.89c.25-.62.59-1.36.92-2.09l1-2.18c.68-1.47,1.32-2.92,2.03-4.42l2.26-4.61c1.47-3.05,3.17-6.33,4.78-9.56,3.25-6.48,6.5-12.96,9.76-19.45,1.38-2.58,2.92-5.44,4.28-7.97-1.58,1.16-2.93,2.13-3.6,2.56-6.61,5.26-4.9,4.51-10.14,8.8.12-.34.23-.68.32-1-4.57,4.14-7.24,6.17-10.03,8.27-1.39,1.05-2.78,2.09-4.36,3.34-1.56,1.25-3.23,2.58-5.15,4.12-.51.68-3.2,2.83-5.83,4.85-.02-.17-.55.15-1.32.72-.69.5-1.59,1.14-2.48,1.78-1.73,1.26-3.39,2.48-3.32,2.1l-.05.09c-.71.51-1.32.94-1.96,1.4-.33.23-.66.46-1.03.71-.18.12-.37.25-.58.39-.19.13-.45.3-.54.34-.71.58-4.35,3.66-8.13,6.59-3.76,2.95-7.63,5.8-8.38,6.37l-.8.35c-2.22,1.31-2.96,2.25-1.6,1.59-.92.53-1.85,1.04-2.79,1.54l.3-.21-2.79,1.5c-.54.24-1.25.31-.58-.35-1.46,1.07-3.21,2.07-4.84,2.82,4.61-1.94,10.26-4.55,15.09-6.68-1.76,1.25-5.27,2.97-7.3,4.12-2.62,1.02-7.82,3.44-11.92,5.16-.86.46-1.17,1.36-3.28,2.09-1.18.05-2.26,1.08-4.07,1.57,1.81-1.13,3.74-1.88,5.66-2.83-.55-.29-4.86,1.94-6.46,2.51-.63.52-4.49,2.02-6.8,3.22.83-.92-2.06.52-3.59.85-1.64.62-2.59,1.24-1.86,1.14-.31.74,6.56-2.38,4.54-.89-.7,0-3.83,1.42-5.53,2.14.1.3,1.26-.25.26.47-1.94.69-3.84,1.84-5.06,1.97.33-.22,1.14-.48,1.7-.69-1.26.46,1.96-1.29,5.03-3.09,1.53-.9,3.04-1.79,3.98-2.35.92-.59,1.27-.84.5-.45.48-.03-2.85,1.85-6.1,3.68-3.28,1.75-6.49,3.44-5.66,3.12,1.58-.46-.89.95.72.43l1.62-1.04c2.2-.74,3.29-.59,2.6-.09-1.83.67.58-.77,2.99-2.33,2.42-1.53,4.91-3.06,3.45-2.27l1.29-.41c-1.2.77-4.6,2.35-6.06,2.62.11.3-1.6,1.1-3.03,1.77l-.54.16c-1.45.74-3.59,1.5-2.47,1.49,4.42-1.77,3.26-.47,2.05.86-1.21,1.34-2.46,2.73,1.91,1.1-3.9.78.99-1.08,4.73-2.74.45.05,2.27-.32,5.05-1.34,2.32-1.09,1.28-.84,1.65-1.19,1.35-.44,3.89-1.42,3.7-.96,1.63-1.23,3-1.11,5.1-2.26,1.82-1.09-.2-.09,1.05-.94,1.43-.68,3.14-1.5,4.78-2.29,1.63-.81,3.19-1.57,4.32-2.13,1.02-.15,3.92-1.04,2.26.44-4.3,2.18,1.23-1.59-3.15.83,2.26-.33-3.82,2.25-4.4,3.13,1.6-.38,4.47-1.89,6.82-3.24l-.53.16c1.04-.59,2.59-1.48,4.17-2.39,1.59-.88,3.24-1.7,4.45-2.19-.4.54.68.14-.81,1.08l2.88-1.61c.32-.28.65-.57-.2-.15,1.24-.97,2.65-1.62,3.74-2.12.21,0,3.85-2.46,7.25-5.05,3.45-2.53,6.66-5.17,6.5-4.93,2.01-1.34,2.55-1.25,4.26-2.79.03-.09-1.06.71-2.62,1.9-1.66,1.22-3.87,2.84-6,4.41-4.3,3.11-8.4,5.9-7.09,5.04.47-.21,2.12-1.22,4.27-2.76,1.08-.76,2.3-1.63,3.59-2.54,1.27-.94,2.61-1.94,3.94-2.93,1.38-1.01,2.52-1.93,3.73-2.86,1.18-.92,2.35-1.78,3.31-2.56,1.97-1.55,3.41-2.62,3.61-2.6,1.33-1.02,2.97-2.37,2.92-2.67,1.1-.76.77-.35.38.14-.4.49-.85,1.04-.24.74.08-.12.02-.19.49-.54.36-.13.69-.24.99-.33,1.44-1.36,2.97-2.61,4.48-3.82,1.5-1.24,2.96-2.44,4.6-3.9l.08-.07s.06-.06.03-.01l-.06.14-.12.28c-.07.17-.14.35-.21.51-.12.32-.22.61-.28.85-.05-.08-.16-.1-.27-.12-.06-.01-.11-.02-.17-.05-.03-.01-.05-.03-.07-.04-.05.01.04-.15-.23.15-.84.87-1.74,1.77-2.63,2.63v-.17c-.46.49-2.17,2.04-2.66,2.76.95-.65,1.95-1.47,3.43-2.86.2-.22.06.02.06.06l-.08.25c-.05.16-.1.32-.15.49-.37.61-.81,1.31-1.1,1.79.09-.11.17-.22.28-.34-.74,1.16-.76,1.14-.91,1.22-.03.03-.07.05-.08.05-1.25,1.74-1.71,2.93-2.32,4.62-.3.83-.63,1.78-1.03,2.8-.41,1.01-.87,2.09-1.39,3.04-.28.94.16-.03-.19,1.19-.48.95-.92,1.82-1.34,2.66-.41.85-.79,1.66-1.19,2.48l-.28.6-.14.3-.17.4c-.23.56-.47,1.13-.71,1.72-.48,1.17-.99,2.41-1.47,3.79-.24,1.89-.14,2.06.91.05-.48,1.38-1.01,2.75-1.44,4.15.1-2.06-.69-.16-1.48,1.72-.8,1.86-1.46,3.75-1.39,1.45-.52,1.21-1.3,3.78-1.64,6.28.21.3.42.75-.14,3.85-1.09,4.26-.76,3.26-1.57,6.83-.43.82-.37-.52-.64-.4-.19,5.68-1.22,4.87-1.37,10.3,0,1.7.06,4.29.34,6.51.28,2.23.76,4.04,1.06,4.08.44,2.43.77,3.68.78,4.28.03.6-.21.55-.51.37Z"/>
  </g>
</svg>