<svg width="86" height="69" viewBox="0 0 86 69" fill="none" xmlns="http://www.w3.org/2000/svg">
<path d="M25.6572 56.6798C25.824 57.2091 26.0335 57.7383 26.2818 58.252C25.6455 57.0106 25.2886 55.6796 25.1063 54.3914C24.9239 53.0993 24.9007 51.8384 24.9472 50.6281C25.0248 48.2035 25.3585 45.7828 25.8706 43.4439C25.1722 45.9618 24.695 48.6861 24.5515 51.5271C24.4933 52.967 24.5437 54.5043 24.9162 56.1038C25.1024 56.9016 25.3662 57.7072 25.7464 58.4894C25.9326 58.8825 26.1615 59.2561 26.3904 59.6297C26.5068 59.8127 26.6387 59.9878 26.7668 60.1629C26.8909 60.3419 27.0267 60.5093 27.1703 60.6688C28.2798 61.992 29.6571 62.9533 31.0654 63.6227C32.4854 64.2726 33.9441 64.6501 35.3641 64.763C36.0741 64.833 36.7763 64.8136 37.4552 64.7669C38.1225 64.7046 38.7627 64.6073 39.3679 64.4594C40.5861 64.1714 41.6685 63.7394 42.6113 63.2335C42.8868 63.3581 43.748 63.2724 44.8421 62.965C45.9362 62.6614 47.2514 62.1322 48.4735 61.5211C50.906 60.303 53.0321 58.7735 53.0515 58.6257C54.6615 57.2363 56.225 55.7808 57.7071 54.2357C56.6673 55.2787 55.612 56.3101 54.5102 57.2791C55.612 56.3062 56.6673 55.2787 57.7071 54.2357C62.417 49.371 66.5954 43.8291 70.572 37.9954C74.5564 32.1577 78.3779 25.962 81.8424 19.4005C82.6145 17.9022 83.6814 15.8473 84.628 13.2009C84.7405 12.8662 84.8531 12.5276 84.9694 12.1812C85.0199 12.0061 85.0742 11.8271 85.1285 11.6481C85.2061 11.3757 85.3031 11.0604 85.3652 10.7608C85.4311 10.4572 85.4971 10.1497 85.563 9.84229C85.6251 9.53484 85.7143 9.21961 85.7415 8.91605C85.7803 8.6086 85.823 8.30115 85.8656 7.98981L85.9238 7.5228L85.9471 7.07524C85.9626 6.77558 85.9781 6.47202 85.9937 6.17235C86.0131 5.8649 85.982 5.59637 85.9781 5.30449C85.9665 5.02039 85.9549 4.7324 85.9432 4.4444C85.9238 4.1642 85.9006 3.88399 85.8812 3.59989C85.8346 3.02391 85.788 2.44403 85.7415 1.86027C85.6872 1.26872 85.6406 0.595441 85.5669 0C83.9219 0.766679 82.4748 1.42828 80.923 2.20663C80.147 2.61916 79.34 3.09007 78.537 3.66605C78.1335 3.95793 77.73 4.23425 77.3343 4.56894C76.9347 4.89196 76.5389 5.2033 76.151 5.55356L75.6738 5.98555L75.3479 6.293C75.1306 6.49926 74.9134 6.70552 74.7077 6.91179C74.2887 7.32821 73.8852 7.74852 73.4934 8.16883C72.7136 9.01335 71.9842 9.85786 71.3092 10.6868C68.5856 13.9987 66.4479 17.1549 65.0823 19.3188L64.5818 20.1127L64.1046 20.9183C63.7904 21.4592 63.4567 21.9924 63.158 22.5489C63.6817 21.6421 63.9688 21.2024 64.2365 20.7509C64.5042 20.2995 64.7874 19.8597 65.3616 18.9841C64.0891 21.288 62.9989 23.5452 62.0484 25.7674C61.0863 27.9857 60.2482 30.1651 59.5189 32.3406C59.9146 31.6284 60.0543 31.5311 60.9388 29.8343C60.6246 30.5426 60.287 31.2432 59.9999 31.9631C59.7749 33.0139 59.255 34.6835 58.7778 36.3881C58.2968 38.0927 57.8545 39.8284 57.6489 40.9531C57.6217 40.6924 57.4898 40.9959 57.3191 41.5602C57.1445 42.1245 56.9311 42.9457 56.7643 43.728L57.0087 43.1364C56.6751 44.6075 56.3531 46.1564 56.1358 47.7559C55.9185 49.3555 55.7827 50.9939 55.7595 52.6284C55.6896 55.8936 56.1668 59.1472 57.1135 61.8675C57.1717 62.0582 57.2376 62.2333 57.2997 62.4007C57.3618 62.5836 57.4239 62.7548 57.4782 62.9144C57.614 63.3191 57.7265 63.646 57.8235 63.8912L58.7817 65.5569L59.8603 66.9891C60.2405 67.3588 60.6284 67.6818 61.0087 68.0282C61.3889 68.3473 61.7807 68.5419 62.2269 68.6898C62.1299 68.7131 62.3433 68.861 62.7467 68.9544C63.1425 69.0556 63.7749 68.9856 64.2171 68.7715C64.6633 68.5614 64.9193 68.3006 64.9969 68.2578C65.0319 68.2345 65.028 68.2656 64.9465 68.3629C64.865 68.4602 64.7176 68.6314 64.4034 68.8377C64.8961 68.5069 65.222 68.0788 65.4974 67.6118C65.6371 67.3899 65.7418 67.1019 65.8505 66.8256L66.0173 66.4131C66.0445 66.343 66.0755 66.2808 66.0988 66.2029L66.157 65.9539L66.3859 64.9654L66.5217 63.8912C66.576 63.541 66.5837 63.1635 66.6109 62.7937C66.6342 62.424 66.6613 62.0582 66.6497 61.7002V61.1631V60.8946C66.6497 60.8089 66.6497 60.7039 66.6458 60.6533L66.5992 59.8983C66.5566 59.3962 66.51 58.8981 66.4363 58.4116C66.3005 57.4309 66.0871 56.4813 65.8233 55.5667C65.5013 54.0606 65.0784 52.574 64.5857 51.1184C64.0852 49.6629 63.5188 48.2346 62.9019 46.8141C61.6643 43.977 60.1435 41.2411 58.417 38.6297C56.6867 36.0222 54.7391 33.5471 52.5743 31.2782C52.0311 30.7139 51.4957 30.1457 50.9215 29.6086L50.0758 28.7952L49.2029 28.013C48.4929 27.3942 47.7053 26.7871 46.8557 26.1566C46.7781 26.1216 46.8634 26.106 46.8945 26.0827L47.0186 26.0165L47.2669 25.8842L47.7713 25.6195C48.1204 25.4366 48.4696 25.2537 48.8188 25.0708L48.5355 25.1058C50.456 24.0706 52.2639 23.0938 54.1766 22.0625C55.2008 21.5176 56.2561 20.965 57.3851 20.4085C57.9515 20.136 58.5334 19.8558 59.1348 19.5639C59.7516 19.2604 60.3646 18.9062 60.966 18.4665C61.7458 17.7504 62.6381 16.7229 62.6847 15.5165C62.6963 14.9211 62.4558 14.3256 62.0639 13.8975C61.6682 13.4616 61.1561 13.1814 60.6789 12.9518C58.7313 12.0528 56.9893 11.4301 56.1591 11.3289C53.8934 10.3482 52.2911 9.83062 50.6422 9.34415L48.2756 8.64363L50.6849 7.79911C52.1087 7.30097 53.5675 6.78725 55.6043 6.13343C54.4016 6.22294 59.7943 4.60786 57.5752 5.04763C54.5607 5.56134 54.4831 5.89214 51.9302 6.3397L52.0272 6.39807L50.4017 6.81449L44.9352 8.21942L50.3008 10.3054C52.904 11.3173 55.4452 12.477 57.9049 13.7924L58.8244 14.2906L59.2822 14.5474L59.5033 14.672L59.5848 14.7265C59.771 14.851 59.9456 14.995 60.0232 15.1974C60.1047 15.3997 60.0659 15.6294 59.9534 15.8045C59.8991 15.894 59.8331 15.9718 59.7594 16.0419C59.6779 16.1236 59.6547 16.1314 59.4025 16.3338C58.9912 16.6529 58.4791 16.9448 57.9709 17.1822L56.031 18.0578C54.7158 18.6533 53.4006 19.2487 52.0816 19.8441C50.7547 20.4474 49.4279 21.0506 48.101 21.6538C45.7228 22.7552 43.3407 23.8566 40.9586 24.9579L40.6016 25.1331C40.4853 25.1914 40.3495 25.2498 40.268 25.3121C41.7461 26.4757 43.2088 27.6316 44.6636 28.8303C45.0245 29.126 45.3891 29.4257 45.7538 29.7215C46.103 30.0172 46.4561 30.3325 46.7819 30.6399C47.1389 30.9746 47.5152 31.2976 47.8605 31.6518C49.2921 33.0217 50.6228 34.5239 51.8914 36.0884C54.4326 39.2174 56.5781 42.7005 58.355 46.2576C60.2676 50.1688 61.9437 54.5004 62.5256 58.6724C62.6032 59.1939 62.6536 59.7154 62.6924 60.2291C62.7079 60.4509 62.7196 60.6688 62.7351 60.8907L62.7506 61.1981C62.7661 61.5484 62.7506 61.9142 62.7041 62.2956C62.6847 62.4863 62.6497 62.6809 62.5566 62.856C62.4713 63.0311 62.2812 63.1479 62.1066 63.1168C61.7535 63.0506 61.5673 62.7354 61.3345 62.4902C61.2337 62.3657 61.1483 62.2217 61.0707 62.0777C61.0048 61.9298 60.9582 61.778 60.9194 61.6379C60.9 61.5678 60.8884 61.4939 60.8806 61.4277L60.869 61.3304L60.803 61.1008C60.6983 60.7856 60.644 60.4431 60.5547 60.1006C59.5189 57.0767 59.3171 53.1927 59.7982 49.2192C59.8564 48.7211 59.9146 48.223 59.9961 47.7209C60.0659 47.2189 60.1512 46.7168 60.2444 46.2187C60.3258 45.7167 60.4422 45.2107 60.5431 44.7048C60.6517 44.2028 60.7371 43.6929 60.8612 43.1948C61.3113 41.1905 61.8428 39.2174 62.4092 37.3221C62.3627 37.4622 62.3161 37.5984 62.2889 37.6879C62.5799 36.6761 62.933 35.7576 63.2511 34.8625C63.608 33.983 63.9339 33.1268 64.3102 32.2939C64.6827 31.4611 65.0435 30.6283 65.4509 29.7876C65.8388 28.9353 66.2656 28.0714 66.704 27.149C66.6342 27.1373 66.9019 26.5613 67.0182 26.2734C67.1773 26.1527 67.8873 24.7283 69.0046 22.6929C70.1336 20.6692 71.6971 18.0539 73.4624 15.5437C74.3469 14.2906 75.2625 13.0413 76.1704 11.9166C76.6243 11.3523 77.0782 10.8269 77.5205 10.3288C77.7455 10.0836 77.9628 9.84618 78.18 9.62046C78.2887 9.5076 78.3973 9.39863 78.502 9.28966C78.6029 9.18848 78.6999 9.09118 78.7969 8.99389C79.6116 8.14548 80.4419 7.59674 80.5621 7.58896C80.7523 7.45274 80.9618 7.31653 81.1751 7.19589L81.5165 7.05189C81.5553 7.02076 81.5476 7.07524 81.5515 7.11027V7.21924L81.5631 7.43718C81.5709 7.58117 81.5631 7.72517 81.5592 7.86527C81.5515 8.14937 81.5243 8.42958 81.4816 8.69811C81.404 9.23907 81.276 9.74889 81.1169 10.2003C81.0975 10.2587 81.0781 10.3132 81.0587 10.3677L81.0277 10.4533L80.9695 10.6284C80.8958 10.8658 80.8066 11.1071 80.7212 11.3406C80.5544 11.8154 80.3565 12.2863 80.1625 12.7533C79.7668 13.6874 79.3168 14.6058 78.8512 15.5165C77.9162 17.3301 76.892 19.132 75.9259 20.856C74.9444 22.5801 73.9978 24.2457 73.0938 25.8336C72.411 27.328 71.5769 28.9781 70.9988 30.243C70.1724 31.3015 70.2694 31.6635 69.3654 32.9983C66.5915 36.0612 65.4276 38.1433 66.8204 36.5515C65.0008 39.377 62.9485 42.0389 61.1018 44.3468C60.2638 45.4326 59.4219 46.5067 58.5334 47.5614C57.7885 48.4681 57.257 48.869 56.7371 49.1764C55.7284 50.2739 55.325 50.6164 54.9137 50.9667C54.7003 51.134 54.4869 51.3091 54.1727 51.5582C54.0175 51.6866 53.839 51.8345 53.6257 52.0135C53.4084 52.1887 53.1562 52.3949 52.8536 52.6362C52.5006 52.8036 51.0728 54.1112 49.5559 55.341C48.0312 56.563 46.4017 57.6877 46.0099 57.8629L46.425 57.5827C44.8848 58.4583 43.5153 58.9798 42.169 59.3456C40.8189 59.6998 39.4921 59.9294 37.9712 60.015C37.4358 60.0345 36.9354 60.015 36.4155 59.9605C35.9034 59.8905 35.3913 59.8088 34.8908 59.6648C33.8976 59.3846 32.9432 58.9565 32.1556 58.3688C31.95 58.2326 31.7754 58.0652 31.5853 57.9135C31.4185 57.7422 31.2323 57.5866 31.0887 57.4036C30.7667 57.0534 30.5184 56.6681 30.2973 56.2595C29.8589 55.4305 29.5989 54.4225 29.4709 53.3251C29.339 52.2315 29.3467 51.0328 29.4049 49.8264C29.4515 48.6277 29.5795 47.4368 29.7464 46.2615C30.0878 43.9148 30.6503 41.6459 31.3331 39.5015C31.1314 39.3458 30.8171 41.4162 30.5068 41.4357C30.6697 40.7936 30.887 40.1592 31.0771 39.5248C31.2905 38.8905 31.5116 38.26 31.7444 37.6296L32.1091 36.6877L32.2914 36.2168L32.6018 35.4657L33.2303 33.9518C33.3273 33.7105 33.4592 33.4225 33.5872 33.1384L33.9752 32.29C34.239 31.7179 34.4873 31.1536 34.7628 30.5699L35.6396 28.7758C36.2099 27.5888 36.8694 26.3123 37.494 25.0552C38.7549 22.5334 40.0158 20.0115 41.2806 17.4857C41.816 16.4817 42.4134 15.3686 42.9411 14.384C42.3281 14.8354 41.8043 15.2129 41.5444 15.3803C38.9799 17.4274 39.6434 17.1355 37.6104 18.805C37.657 18.6727 37.6997 18.5404 37.7346 18.4159C35.9616 20.0271 34.9257 20.8171 33.8433 21.6344C33.304 22.043 32.7647 22.4477 32.1517 22.9342C31.5465 23.4207 30.8986 23.9383 30.1537 24.5376C29.9559 24.8023 28.9122 25.639 27.8919 26.4251C27.8841 26.359 27.6785 26.4835 27.3798 26.7053C27.1121 26.8999 26.7629 27.149 26.4176 27.3981C25.7464 27.8884 25.1024 28.3632 25.1296 28.2154L25.1102 28.2504C24.8347 28.4489 24.598 28.6162 24.3497 28.7952C24.2217 28.8847 24.0937 28.9742 23.9501 29.0715C23.8803 29.1182 23.8066 29.1688 23.7251 29.2233C23.6514 29.2739 23.5505 29.3401 23.5156 29.3556C23.2402 29.5814 21.828 30.78 20.3615 31.9203C18.9027 33.0684 17.4013 34.1775 17.1103 34.3994L16.7999 34.5356C15.9386 35.0454 15.6515 35.4112 16.1792 35.1544C15.8222 35.3606 15.4614 35.5591 15.0968 35.7537L15.2131 35.672L14.1307 36.2558C13.9212 36.3492 13.6458 36.3764 13.9057 36.1195C13.3393 36.536 12.6603 36.9251 12.0279 37.217C13.8165 36.462 16.0085 35.4463 17.8823 34.6173C17.1995 35.1038 15.8378 35.7732 15.0502 36.2207C14.0337 36.6177 12.0163 37.5595 10.4256 38.2289C10.092 38.4079 9.97172 38.7582 9.15311 39.0423C8.69531 39.0617 8.27631 39.4626 7.57409 39.6533C8.27631 39.2135 9.02508 38.9216 9.76998 38.5519C9.5566 38.439 7.88446 39.3069 7.26372 39.5287C7.0193 39.7311 5.52175 40.3149 4.62555 40.7819C4.94756 40.4238 3.82634 40.9843 3.23275 41.1127C2.59648 41.354 2.22792 41.5953 2.51113 41.5563C2.39086 41.8443 5.05619 40.6301 4.2725 41.21C4.00092 41.21 2.78659 41.7626 2.12705 42.0428C2.16584 42.1596 2.61588 41.9455 2.22792 42.2257C1.47526 42.4943 0.738127 42.9418 0.264809 42.9924C0.392837 42.9068 0.70709 42.8056 0.924351 42.7239C0.435514 42.9029 1.68476 42.2218 2.87582 41.5213C3.46941 41.1711 4.05524 40.8247 4.41992 40.6068C4.77685 40.3771 4.91264 40.2798 4.61391 40.4316C4.80013 40.4199 3.5082 41.1516 2.24732 41.8638C0.974787 42.5449 -0.270585 43.2026 0.0514273 43.078C0.664414 42.899 -0.293863 43.4478 0.330763 43.2454L0.959268 42.8406C1.81279 42.5526 2.23568 42.611 1.96798 42.8056C1.258 43.0664 2.193 42.5059 3.128 41.8988C4.06688 41.3034 5.03291 40.7079 4.46648 41.0154L4.96696 40.8558C4.5014 41.1555 3.18231 41.7704 2.61588 41.8755C2.65856 41.9922 1.99514 42.3036 1.44035 42.5643L1.23084 42.6266C0.668293 42.9146 -0.161954 43.2104 0.272568 43.2065C1.98738 42.5176 1.53734 43.0235 1.0679 43.5412C0.598459 44.0627 0.113502 44.6036 1.80891 43.9692C0.295846 44.2728 2.193 43.5489 3.64399 42.9029C3.81858 42.9224 4.52468 42.7784 5.60322 42.3814C6.5033 41.9572 6.09982 42.0545 6.24337 41.9183C6.76712 41.747 7.75255 41.3657 7.67884 41.5447C8.31122 41.066 8.84274 41.1127 9.65747 40.6651C10.3636 40.2409 9.57987 40.6301 10.0648 40.2993C10.6196 40.0347 11.283 39.7155 11.9193 39.4081C12.5517 39.0929 13.1569 38.7971 13.5953 38.5791C13.991 38.5208 15.1161 38.1744 14.4721 38.7504C12.8039 39.5988 14.9493 38.1316 13.25 39.0734C14.1268 38.945 11.768 39.949 11.543 40.2915C12.1637 40.1436 13.2772 39.556 14.1889 39.0306L13.9833 39.0929C14.3868 38.8632 14.9881 38.5169 15.6011 38.1627C16.218 37.8202 16.8581 37.5011 17.3276 37.3104C17.1724 37.5206 17.5914 37.3649 17.0133 37.7307L18.1306 37.1042C18.2548 36.9952 18.3828 36.8823 18.0531 37.0458C18.5341 36.6683 19.0812 36.4153 19.504 36.2207C19.5855 36.2207 20.9977 35.2634 22.3168 34.2554C23.6553 33.2708 24.9007 32.2433 24.8386 32.3367C25.6184 31.8152 25.8279 31.8503 26.4913 31.2509C26.503 31.2159 26.0801 31.5273 25.4748 31.9904C24.8308 32.4652 23.9734 33.0956 23.147 33.7066C21.4788 34.917 19.8881 36.0028 20.3964 35.6681C20.5787 35.5864 21.2189 35.1933 22.053 34.594C22.472 34.2982 22.9453 33.9596 23.4458 33.6055C23.9385 33.2396 24.4584 32.8505 24.9744 32.4652C25.5098 32.0721 25.952 31.7141 26.4215 31.3521C26.8793 30.9941 27.3332 30.6594 27.7057 30.3558C28.4699 29.7526 29.0286 29.3362 29.1062 29.344C29.6222 28.947 30.2585 28.4216 30.2391 28.3049C30.6658 28.0091 30.5378 28.1687 30.3865 28.3593C30.2313 28.55 30.0567 28.7641 30.2934 28.6473C30.3244 28.6006 30.3011 28.5734 30.4835 28.4372C30.6232 28.3866 30.7512 28.3438 30.8676 28.3088C31.4262 27.7795 32.0198 27.293 32.6057 26.8221C33.1876 26.3395 33.754 25.8725 34.3903 25.3043L34.4213 25.2771C34.4213 25.2771 34.4446 25.2537 34.433 25.2732L34.4097 25.3277L34.3631 25.4366C34.336 25.5028 34.3088 25.5728 34.2817 25.6351C34.2351 25.7596 34.1963 25.8725 34.173 25.9659C34.1536 25.9348 34.111 25.927 34.0683 25.9192C34.045 25.9153 34.0256 25.9114 34.0023 25.8997C33.9907 25.8959 33.9829 25.8881 33.9752 25.8842C33.9558 25.8881 33.9907 25.8258 33.8859 25.9426C33.5601 26.2811 33.2109 26.6314 32.8656 26.9661V26.8999C32.6871 27.0906 32.0237 27.6939 31.8336 27.9741C32.2022 27.7211 32.5901 27.402 33.1643 26.861C33.2419 26.7754 33.1876 26.8688 33.1876 26.8844L33.1566 26.9817C33.1372 27.0439 33.1178 27.1062 33.0984 27.1724C32.9548 27.4098 32.7841 27.6822 32.6716 27.869C32.7065 27.8262 32.7376 27.7834 32.7802 27.7367C32.4932 28.1881 32.4854 28.1803 32.4272 28.2115C32.4156 28.2231 32.4 28.2309 32.3962 28.2309C31.9112 28.9081 31.7327 29.3712 31.4961 30.0289C31.3797 30.3519 31.2517 30.7217 31.0965 31.1186C30.9374 31.5117 30.7589 31.932 30.5572 32.3017C30.4486 32.6675 30.6193 32.29 30.4835 32.7648C30.2973 33.1346 30.1266 33.4731 29.9636 33.8C29.8045 34.1308 29.6571 34.4461 29.5019 34.7652L29.3933 34.9987L29.339 35.1155L29.273 35.2711C29.1838 35.4891 29.0907 35.7109 28.9976 35.9405C28.8114 36.3959 28.6135 36.8784 28.4273 37.4155C28.3342 38.151 28.3729 38.2172 28.7803 37.435C28.5941 37.972 28.3885 38.5052 28.2216 39.05C28.2604 38.2483 27.9539 38.9878 27.6475 39.7194C27.3371 40.4433 27.081 41.1788 27.1082 40.2837C26.9064 40.7546 26.6038 41.7548 26.4719 42.7278C26.5534 42.8445 26.6349 43.0197 26.4176 44.2261C25.9947 45.884 26.1227 45.4948 25.8085 46.8842C25.6417 47.2033 25.6649 46.6818 25.5602 46.7285C25.4865 48.939 25.0869 48.6238 25.0287 50.737C25.0287 51.3986 25.052 52.4066 25.1606 53.2706C25.2692 54.1384 25.4554 54.8429 25.5718 54.8584C25.7425 55.8041 25.8706 56.2906 25.8744 56.5241C25.8861 56.7576 25.793 56.7382 25.6766 56.6681L25.6572 56.6798Z" fill="white"/>
</svg>
