<svg width="55" height="42" viewBox="0 0 55 42" fill="none" xmlns="http://www.w3.org/2000/svg">
<path d="M1.25142 29.6598L13.5275 34.7438L21.3428 37.86C23.9806 38.1182 26.3714 36.4133 26.9484 34.0059C27.4532 31.9028 26.4865 29.6229 24.5346 28.43L0.0238074 18.222C-0.0452457 20.2636 0.0238074 22.645 0.39209 25.2738C0.614595 26.8696 0.915359 28.3362 1.25142 29.6598Z" fill="#47B2FF"/>
<path d="M22.0993 23.8395C17.0937 23.8395 13.0349 27.9057 13.0349 32.9205C13.0349 37.9353 17.0937 42.0016 22.0993 42.0016C27.1049 42.0016 31.1636 37.9353 31.1636 32.9205C31.1636 27.9057 27.1049 23.8395 22.0993 23.8395ZM22.2021 40.3597C18.1786 40.3597 14.9178 37.0928 14.9178 33.062C14.9178 29.0311 18.1786 25.7642 22.2021 25.7642C26.2256 25.7642 29.4864 29.0311 29.4864 33.062C29.4864 37.0928 26.2256 40.3597 22.2021 40.3597Z" fill="#47B2FF"/>
<path d="M42.7231 0C35.9436 0 30.447 5.50673 30.447 12.2987C30.447 19.0906 35.9436 24.5974 42.7231 24.5974C49.5026 24.5974 54.9992 19.0906 54.9992 12.2987C54.9992 5.50673 49.5026 0 42.7231 0ZM42.7231 20.8309C38.0198 20.8309 34.2066 17.0106 34.2066 12.2987C34.2066 7.58675 38.0198 3.76647 42.7231 3.76647C47.4264 3.76647 51.2397 7.58675 51.2397 12.2987C51.2397 17.0106 47.4264 20.8309 42.7231 20.8309Z" fill="#47B2FF"/>
<path d="M42.8873 18.5295C46.379 18.5295 49.2095 15.6938 49.2095 12.1957C49.2095 8.69763 46.379 5.86188 42.8873 5.86188C39.3957 5.86188 36.5651 8.69763 36.5651 12.1957C36.5651 15.6938 39.3957 18.5295 42.8873 18.5295Z" fill="#47B2FF"/>
<path d="M31.1637 32.633L42.8873 24.2699L30.3458 12.4217L22.6195 23.8533L31.1637 32.633Z" fill="#47B2FF"/>
</svg>
