<svg width="55" height="34" viewBox="0 0 55 34" fill="none" xmlns="http://www.w3.org/2000/svg">
<path d="M9.68657 0C9.65198 1.89717 9.75863 4.5939 10.436 7.73769C10.9174 9.9673 11.5343 12.8331 13.3186 15.762C15.8784 19.9632 19.6114 22.2874 22.1394 23.4997V0H31.1908V13.412C32.8137 12.9965 35.9298 11.9619 38.8585 9.28523C42.6866 5.78321 43.8569 1.61345 44.2201 0H52.9256C52.5797 2.07771 51.6601 5.90931 48.8899 9.8584C46.1226 13.8018 42.8307 15.9826 40.9916 17.0229C42.9979 17.9658 45.9295 19.6566 48.717 22.5826C52.8074 26.8813 54.3755 31.5297 55.001 33.9312H45.3732C44.8428 32.355 43.3755 28.6868 39.6656 25.6204C36.2584 22.8061 32.7243 21.955 31.0755 21.6655V33.9312C28.2447 34.1204 20.3378 34.2665 13.0304 29.1167C7.63416 25.3137 5.07729 20.396 3.92137 18.1119C1.5144 13.349 0.81969 8.9356 0.468013 6.59137C0.070214 3.93189 -0.0104989 1.66217 0.00103154 0H9.68657Z" fill="#47B2FF"/>
</svg>
